<svg xmlns="http://www.w3.org/2000/svg" viewBox="0 0 512 512" width="512" height="512">
	<style>
		tspan { white-space:pre }
		.shp0 { fill: #ffffff } 
	</style>
	<path id="Layer" class="shp0" d="M426.67,330.67c-25.7,0 -51.24,-3.96 -75.73,-11.73c-7.47,-2.14 -16,-1.07 -21.33,5.33l-46.94,46.93c-60.8,-30.93 -109.86,-80 -140.8,-140.8l46.94,-46.93c5.33,-5.33 7.46,-13.86 5.33,-21.33c-8.54,-24.53 -12.8,-50.14 -12.8,-76.8c0,-11.73 -9.6,-21.33 -21.33,-21.33h-74.67c-11.73,0 -21.33,9.6 -21.33,21.33c0,200.53 162.14,362.67 362.67,362.67c11.73,0 21.33,-9.6 21.33,-21.33v-74.67c0,-11.73 -9.6,-21.33 -21.33,-21.33z" />
</svg>